<?xml version="1.0" encoding="utf-8"?>
<!-- Generator: Adobe Illustrator 24.0.2, SVG Export Plug-In . SVG Version: 6.00 Build 0)  -->
<svg version="1.1" id="Layer_1" xmlns="http://www.w3.org/2000/svg" xmlns:xlink="http://www.w3.org/1999/xlink" x="0px" y="0px"
	 viewBox="0 0 99.2126007 99.2126007" style="enable-background:new 0 0 99.2126007 99.2126007;" xml:space="preserve">
<style type="text/css">
	.st0{fill:#E6B23A;}
	.st1{fill:#FFFFFF;}
</style>
<g>
	<g>
		<path class="st0" d="M49.6060486,99.2126007c27.3967056,0,49.6063004-22.2095871,49.6063004-49.6063004S77.0027542,0,49.6060486,0
			S-0.0002518,22.2095814-0.0002518,49.6063004S22.2093315,99.2126007,49.6060486,99.2126007"/>
		<path class="st1" d="M49.6055412,51.0645332c4.0279503,0,7.2921753-3.2642212,7.2921753-7.2921715
			c0-4.0269508-3.264225-7.2911682-7.2921753-7.2911682c-4.026947,0-7.2911682,3.2642174-7.2911682,7.2911682
			C42.314373,47.800312,45.5785942,51.0645332,49.6055412,51.0645332 M47.8074036,71.9992218
			c-13.2440453-19.1999397-15.7022705-21.1701469-15.7022705-28.22686c0-9.6648712,7.835537-17.5004139,17.5004082-17.5004139
			c9.6658745,0,17.5014153,7.8355427,17.5014153,17.5004139c0,7.0567131-2.4582291,9.0269203-15.7022705,28.22686
			C50.5353012,73.2549973,48.6767883,73.2549973,47.8074036,71.9992218"/>
	</g>
</g>
</svg>
